<svg height="512pt" viewBox="0 -43 512.00066 512" width="512pt" xmlns="http://www.w3.org/2000/svg"><path d="m494.265625 166.667969c-7.207031-5.761719-15.929687-9.210938-24.957031-10.09375-2.851563-8.605469-8.144532-16.355469-15.347656-22.113281-9.859376-7.878907-22.199219-11.449219-34.742188-10.046876-12.542969 1.402344-23.789062 7.605469-31.667969 17.464844-12.246093 15.324219-13.566406 35.90625-4.550781 52.234375l-29.492188 36.902344c-4.269531-.488281-8.589843-.746094-12.953124-.746094-3.042969 0-6.066407.128907-9.066407.367188-14.894531-18.414063-33.589843-33.773438-54.539062-44.703125-24.394531-12.722656-51.921875-19.449219-79.605469-19.449219-90.808594 0-165.429688 70.597656-171.882812 159.789063h-25.460938v53.035156c0 25.285156 20.570312 45.855468 45.855469 45.855468h390.308593c25.285157 0 45.855469-20.570312 45.855469-45.855468v-53.035156h-30.980469c-2.550781-18.375-9.601562-35.671876-20.609374-50.566407l21.308593-26.667969c17.910157 5.191407 37.699219-.636718 49.945313-15.964843 16.261718-20.351563 12.933594-50.144531-7.417969-66.40625zm-296.917969 29.816406c38.039063 0 74.421875 15.414063 100.953125 42.039063-13.449219 5.5-25.8125 13.660156-36.421875 24.214843-17.464844 17.375-28.472656 39.535157-31.804687 63.535157h-174.523438c6.378907-72.632813 67.539063-129.789063 141.796875-129.789063zm238.816406 198.679687h-390.308593c-8.742188 0-15.855469-7.113281-15.855469-15.855468v-23.035156l422.019531.003906v23.03125c0 8.742187-7.113281 15.855468-15.855469 15.855468zm-175.675781-68.890624c7.304688-37.53125 40.503907-66.003907 80.066407-66.003907s72.761718 28.472657 80.066406 66.003907zm217.757813-111.925782c-5.566406 6.964844-15.386719 8.566406-22.839844 3.71875l-11.402344-7.40625-34.636718 43.347656c-7.488282-5.890624-15.625-10.75-24.234376-14.503906l37.007813-46.3125-9.738281-9.488281c-6.371094-6.203125-6.980469-16.132813-1.414063-23.097656 2.875-3.601563 6.980469-5.863281 11.5625-6.375 4.578125-.511719 9.082031.789062 12.683594 3.667969 4.277344 3.414062 6.636719 8.523437 6.472656 14.011718l-.589843 19.949219 19.324218-4.980469c5.316406-1.367187 10.820313-.195312 15.097656 3.222656 7.429688 5.941407 8.644532 16.816407 2.707032 24.246094zm0 0"/><path d="m158.058594 88.019531c-1.253906 6.199219-7.214844 11-9.40625 12.328125l.148437-.085937 14.914063 26.03125c1.964844-1.125 19.300781-11.574219 23.644531-31.828125 2.007813-9.363282 1.765625-24.15625-10.792969-41.457032-3.375-4.648437-7.132812-11.328124-5.851562-16.734374 1.347656-5.707032 8.019531-9.308594 8.085937-9.34375l-.175781.085937-13.046875-27.015625c-1.945313.9375-19.121094 9.71875-23.929687 28.824219-3.367188 13.378906.214843 27.449219 10.640624 41.8125 4.816407 6.632812 6.757813 12.480469 5.769532 17.382812zm0 0"/><path d="m223.203125 88.019531c-1.25 6.199219-7.214844 11-9.40625 12.328125l.148437-.085937 14.917969 26.03125c1.960938-1.125 19.296875-11.574219 23.640625-31.828125 2.007813-9.363282 1.765625-24.15625-10.789062-41.457032-3.378906-4.648437-7.132813-11.328124-5.855469-16.730468 1.347656-5.710938 8.023437-9.3125 8.089844-9.347656l-.179688.085937-13.046875-27.015625c-1.941406.9375-19.117187 9.714844-23.925781 28.820312-3.367187 13.382813.210937 27.449219 10.640625 41.8125 4.816406 6.636719 6.753906 12.484376 5.765625 17.386719zm0 0"/></svg>