<?xml version="1.0" encoding="iso-8859-1"?>
<!-- Generator: Adobe Illustrator 19.0.0, SVG Export Plug-In . SVG Version: 6.00 Build 0)  -->
<svg version="1.1" id="Capa_1" xmlns="http://www.w3.org/2000/svg" xmlns:xlink="http://www.w3.org/1999/xlink" x="0px" y="0px"
	 viewBox="0 0 512.002 512.002" style="enable-background:new 0 0 512.002 512.002;" xml:space="preserve">
<g>
	<g>
		<path d="M383.644,70.114c-17.677-17.677-40.687-28.079-65.403-29.714L282.233,4.393c-5.857-5.858-15.355-5.858-21.213,0.001
			c-5.857,5.858-5.857,15.355,0,21.213l19.326,19.326c-15.415,4.883-29.541,13.419-41.304,25.182
			c-19.301,19.301-29.936,44.964-29.947,72.348c-0.01,73.658-28.7,142.907-80.788,194.991
			c-39.863,39.868-39.863,104.735,0.001,144.602c19.31,19.309,44.986,29.944,72.298,29.946c0.003,0,0.004,0,0.008,0
			c27.307,0,52.983-10.637,72.295-29.95c45.847-45.846,81.346-99.307,105.512-158.899c23.338-57.551,35.171-118.36,35.171-180.737
			C413.592,115.104,402.956,89.428,383.644,70.114z M251.696,460.838c-13.647,13.647-31.787,21.163-51.082,21.163
			c-0.001,0-0.004,0-0.006,0c-19.299-0.002-37.442-7.517-51.086-21.16c-28.167-28.169-28.167-74.005,0-102.175
			c57.752-57.748,89.563-134.529,89.574-216.278c0.008-19.289,7.523-37.422,21.16-51.061c13.646-13.646,31.789-21.161,51.088-21.161
			c19.298,0,37.441,7.515,51.086,21.161c13.647,13.647,21.162,31.79,21.162,51.087C383.592,262.7,336.751,375.786,251.696,460.838z"
			/>
	</g>
</g>
<g>
</g>
<g>
</g>
<g>
</g>
<g>
</g>
<g>
</g>
<g>
</g>
<g>
</g>
<g>
</g>
<g>
</g>
<g>
</g>
<g>
</g>
<g>
</g>
<g>
</g>
<g>
</g>
<g>
</g>
</svg>
