<svg height="512pt" viewBox="0 -50 512 512" width="512pt" xmlns="http://www.w3.org/2000/svg"><path d="m482.386719 64.355469c-20.75-41.5-49.550781-64.355469-81.09375-64.355469h-95.707031c-11.375 0-22.847657.5625-34.324219 1.640625-.398438.023437-.792969.0625-1.191407.121094-47.429687 4.59375-94.984374 18.078125-136.648437 38.261719-.796875.304687-1.566406.691406-2.3125 1.136718-25.617187 12.628906-48.953125 27.785156-68.542969 44.980469-34.527344.15625-62.566406 28.292969-62.566406 62.847656v114.855469c0 34.558594 28.039062 62.695312 62.566406 62.851562 59.800782 52.484376 154.351563 86.140626 243.011719 86.140626l95.714844-.003907c31.542969 0 60.339843-22.855469 81.09375-64.355469 19.09375-38.195312 29.613281-88.648437 29.613281-142.058593 0-53.414063-10.519531-103.863281-29.613281-142.0625zm-253.320313-25.855469-42.269531 42.269531-22.078125-22.078125c20.460938-8.523437 42.15625-15.339844 64.347656-20.191406zm-150.878906 261.894531c-3.179688-2.9375-7.476562-4.359375-11.785156-3.894531-1.207032.128906-2.398438.195312-3.546875.195312-18.117188 0-32.855469-14.738281-32.855469-32.851562v-114.855469c0-18.109375 14.738281-32.847656 32.855469-32.851562 1.160156 0 2.328125.0625 3.566406.195312 4.300781.457031 8.589844-.960937 11.765625-3.894531 16.394531-15.144531 36.011719-28.65625 57.699219-40.152344l29.695312 29.695313-16.585937 16.589843c-5.859375 5.855469-5.859375 15.355469 0 21.210938 2.929687 2.929688 6.769531 4.394531 10.605468 4.394531 3.839844 0 7.679688-1.464843 10.609376-4.394531l16.585937-16.589844 16.585937 16.585938c2.925782 2.929687 6.765626 4.394531 10.605469 4.394531 3.835938 0 7.675781-1.464844 10.605469-4.394531 5.855469-5.855469 5.855469-15.355469 0-21.210938l-16.585938-16.585937 70.898438-70.898438c8.917969-.703125 17.828125-1.085937 26.675781-1.085937h37.1875c-8.25 9.398437-15.835937 20.890625-22.570312 34.359375-19.097657 38.195312-29.617188 88.644531-29.617188 142.058593 0 53.410157 10.519531 103.863282 29.617188 142.058594 6.734375 13.46875 14.320312 24.960938 22.570312 34.355469l-37.191406.003906c-83.910156.003907-173.167969-32.355469-227.390625-82.4375zm377.363281 34.664063c-15.179687 30.363281-34.957031 47.773437-54.257812 47.773437s-39.078125-17.410156-54.261719-47.773437c-17.054688-34.109375-26.445312-79.796875-26.445312-128.644532 0-48.84375 9.390624-94.527343 26.445312-128.640624 15.183594-30.359376 34.960938-47.773438 54.261719-47.773438s39.078125 17.414062 54.257812 47.773438c17.054688 34.113281 26.449219 79.796874 26.449219 128.644531 0 48.84375-9.394531 94.53125-26.449219 128.640625zm0 0"/><path d="m401.292969 172.273438c-8.285157 0-15 6.714843-15 15v38.285156c0 8.28125 6.714843 15 15 15 8.285156 0 15-6.71875 15-15v-38.285156c0-8.285157-6.714844-15-15-15zm0 0"/></svg>