<?xml version="1.0" encoding="iso-8859-1"?>
<!-- Generator: Adobe Illustrator 19.0.0, SVG Export Plug-In . SVG Version: 6.00 Build 0)  -->
<svg version="1.1" id="Layer_1" xmlns="http://www.w3.org/2000/svg" xmlns:xlink="http://www.w3.org/1999/xlink" x="0px" y="0px"
	 viewBox="0 0 512 512" style="enable-background:new 0 0 512 512;" xml:space="preserve">
<g>
	<g>
		<path d="M202.867,342.778c-16.55-19.871-33.328-28.318-34.033-28.668c-2.853-1.414-6.203-1.414-9.056,0
			c-0.706,0.35-17.482,8.798-34.033,28.668c-15.094,18.122-33.087,49.759-33.087,97.573c0,27.655,7.153,46.759,21.867,58.405
			C129.355,510.494,148.919,512,164.306,512s34.951-1.505,49.781-13.244c14.713-11.646,21.867-30.75,21.867-58.405
			C235.954,392.539,217.962,360.9,202.867,342.778z M201.428,482.763c-7.724,6.113-19.173,8.84-37.122,8.84
			s-29.398-2.725-37.122-8.84c-9.508-7.525-14.129-21.398-14.129-42.411c0-33.101,9.336-61.288,27.75-83.776
			c9.051-11.055,18.217-17.977,23.5-21.456c5.294,3.485,14.455,10.406,23.502,21.456c18.413,22.488,27.75,50.674,27.75,83.776
			C215.557,461.366,210.935,475.239,201.428,482.763z"/>
	</g>
</g>
<g>
	<g>
		<path d="M244.169,176.112c-0.349-0.707-8.797-17.482-28.667-34.033c-18.122-15.094-49.759-33.087-97.573-33.087
			c-27.655,0-46.76,7.153-58.406,21.868c-11.737,14.831-13.242,34.393-13.242,49.781s1.504,34.95,13.242,49.782
			c11.646,14.714,30.752,21.867,58.406,21.867c47.813,0,79.451-17.993,97.573-33.087c19.87-16.551,28.317-33.328,28.667-34.033
			C245.584,182.315,245.584,178.965,244.169,176.112z M201.706,204.141c-22.488,18.413-50.675,27.75-83.776,27.75
			c-21.014,0-34.886-4.621-42.411-14.129c-6.113-7.724-8.84-19.172-8.84-37.122c0-17.948,2.726-29.398,8.84-37.122
			c7.525-9.508,21.397-14.129,42.411-14.129c33.101,0,61.288,9.336,83.776,27.75c11.054,9.052,17.977,18.218,21.456,23.5
			C219.676,185.932,212.755,195.094,201.706,204.141z"/>
	</g>
</g>
<g>
	<g>
		<path d="M465.167,118.559c-2.142-23.487-11.791-58.583-45.599-92.391c-19.555-19.555-38.12-28.007-56.761-25.836
			c-18.786,2.187-33.685,14.956-44.565,25.835c-10.88,10.88-23.649,25.778-25.836,44.565c-2.169,18.64,6.282,37.206,25.836,56.761
			c33.81,33.809,68.904,43.458,92.392,45.599c4.264,0.389,8.311,0.552,12.099,0.552c19.092,0,31.614-4.136,32.236-4.346
			c3.018-1.018,5.386-3.387,6.404-6.404C461.624,162.148,467.514,144.312,465.167,118.559z M443.317,151.242
			c-6.208,1.278-17.584,2.863-31.79,1.446c-28.923-2.881-55.456-16.21-78.861-39.617c-14.859-14.859-21.4-27.935-19.998-39.979
			c1.139-9.785,7.307-19.809,19.998-32.499c12.691-12.692,22.714-18.859,32.499-19.998c1.061-0.123,2.129-0.186,3.207-0.186
			c11.154,0,23.222,6.634,36.772,20.186c23.407,23.406,36.736,49.939,39.618,78.86C446.179,133.67,444.592,145.047,443.317,151.242z
			"/>
	</g>
</g>
<g>
	<g>
		<path d="M423.128,289.637c-33.809-33.808-68.904-43.457-92.391-45.598c-25.755-2.347-43.59,3.542-44.336,3.794
			c-3.018,1.018-5.386,3.387-6.404,6.404c-0.252,0.747-6.142,18.583-3.794,44.335c2.141,23.488,11.79,58.583,45.598,92.392
			c17.562,17.563,34.326,26.168,51.064,26.168c1.898,0,3.798-0.111,5.699-0.333c18.787-2.187,33.684-14.956,44.564-25.835
			c10.88-10.88,23.649-25.778,25.836-44.565C451.134,327.759,442.683,309.191,423.128,289.637z M428.701,344.041
			c-1.139,9.785-7.307,19.809-19.998,32.5c-12.691,12.691-22.713,18.858-32.498,19.997c-12.05,1.402-25.122-5.14-39.979-19.998
			c-23.407-23.407-36.736-49.94-39.617-78.862c-1.418-14.23,0.173-25.615,1.449-31.806c15.589-3.23,64.115-8.344,110.646,38.189
			C423.561,318.92,430.102,331.998,428.701,344.041z"/>
	</g>
</g>
<g>
	<g>
		<path d="M358.63,356.624c-0.569-0.526-1.144-1.08-1.726-1.661c-3.981-3.985-10.44-3.987-14.424-0.005
			c-3.985,3.982-3.987,10.439-0.005,14.424c0.775,0.776,1.543,1.515,2.302,2.217c1.963,1.815,4.446,2.712,6.924,2.712
			c2.743,0,5.479-1.1,7.489-3.274C363.015,366.902,362.765,360.449,358.63,356.624z"/>
	</g>
</g>
<g>
	<g>
		<path d="M401.723,354.96c-3.985-3.983-10.441-3.983-14.425,0c-4.752,4.752-8.536,7.448-11.909,8.488
			c-5.383,1.657-8.404,7.366-6.747,12.749c1.35,4.384,5.386,7.201,9.745,7.201c0.993,0,2.005-0.147,3.004-0.454
			c8.771-2.701,15.805-9.031,20.332-13.559C405.706,365.401,405.706,358.943,401.723,354.96z"/>
	</g>
</g>
<g>
</g>
<g>
</g>
<g>
</g>
<g>
</g>
<g>
</g>
<g>
</g>
<g>
</g>
<g>
</g>
<g>
</g>
<g>
</g>
<g>
</g>
<g>
</g>
<g>
</g>
<g>
</g>
<g>
</g>
</svg>
