<?xml version="1.0" encoding="iso-8859-1"?>
<!-- Generator: Adobe Illustrator 18.0.0, SVG Export Plug-In . SVG Version: 6.00 Build 0)  -->
<!DOCTYPE svg PUBLIC "-//W3C//DTD SVG 1.1//EN" "http://www.w3.org/Graphics/SVG/1.1/DTD/svg11.dtd">
<svg version="1.1" id="Capa_1" xmlns="http://www.w3.org/2000/svg" xmlns:xlink="http://www.w3.org/1999/xlink" x="0px" y="0px"
	 viewBox="0 0 332.007 332.007" style="enable-background:new 0 0 332.007 332.007;" xml:space="preserve">
<g>
	<g>
		<path d="M147.893,148.892c-3.803-1.636-8.217,0.118-9.854,3.924c-14.229,33.06-20.927,70.062-24.041,95.28
			c-0.508,4.11,2.413,7.854,6.524,8.362c0.312,0.039,0.622,0.058,0.929,0.058c3.731,0,6.965-2.783,7.434-6.582
			c2.994-24.249,9.404-59.754,22.932-91.188C153.455,154.94,151.698,150.528,147.893,148.892z"/>
		<path d="M251.487,295.189c0-3.689-0.385-91.093-33.834-155.965c-0.117-0.227-21.35-35.185-13.958-67.66
			c0.012-0.029,0.028-0.054,0.04-0.082l13.423-33.079c9.811-0.868,17.528-9.132,17.528-19.164C234.686,8.631,226.055,0,215.447,0
			h-98.859c-10.608,0-19.238,8.631-19.238,19.239c0,10.032,7.718,18.296,17.528,19.164l13.271,32.708
			c9.487,27.929-13.711,67.881-13.831,68.113c-33.449,64.872-33.82,156.443-33.798,156.678
			c0.389,19.972,17.021,36.104,37.424,36.104h96.099c20.633,0,37.421-16.495,37.442-36.778
			C251.485,295.216,251.487,295.203,251.487,295.189z M144.642,76.162h42.687c-1.611,10.346-0.865,20.57,1.023,29.898h-44.734
			C145.509,96.732,146.253,86.508,144.642,76.162z M119.959,23.479h-3.371c-2.337,0-4.238-1.901-4.238-4.239S114.251,15,116.588,15
			h98.859c2.337,0,4.239,1.901,4.239,4.239s-1.902,4.239-4.239,4.239h-3.37c-3.053,0-5.802,1.851-6.949,4.68l-13.393,33.004h-51.435
			l-13.392-33.004C125.761,25.329,123.012,23.479,119.959,23.479z M214.043,317.007h-96.099c-12.375,0-22.442-9.787-22.442-21.817
			c0-0.103,1.337-89.049,31.984-148.77c1.323-2.076,5.7-12.379,11.998-25.358h53.003c5.911,14.256,10.674,23.282,11.998,25.358
			c31.5,61.382,31.998,147.38,32.002,148.753c0,0.006-0.001,0.012-0.001,0.018C236.486,307.22,226.419,317.007,214.043,317.007z"/>
	</g>
</g>
<g>
</g>
<g>
</g>
<g>
</g>
<g>
</g>
<g>
</g>
<g>
</g>
<g>
</g>
<g>
</g>
<g>
</g>
<g>
</g>
<g>
</g>
<g>
</g>
<g>
</g>
<g>
</g>
<g>
</g>
</svg>
