<?xml version="1.0" encoding="iso-8859-1"?>
<!-- Generator: Adobe Illustrator 18.0.0, SVG Export Plug-In . SVG Version: 6.00 Build 0)  -->
<!DOCTYPE svg PUBLIC "-//W3C//DTD SVG 1.1//EN" "http://www.w3.org/Graphics/SVG/1.1/DTD/svg11.dtd">
<svg version="1.1" id="Capa_1" xmlns="http://www.w3.org/2000/svg" xmlns:xlink="http://www.w3.org/1999/xlink" x="0px" y="0px"
	 viewBox="0 0 327.444 327.444" style="enable-background:new 0 0 327.444 327.444;" xml:space="preserve">
<g>
	<path d="M267.713,20.556c-17.064-19.876-48.002-20.45-51.488-20.45c0,0-70.408-3.615-117.453,31.485
		C72.287,51.352,55.79,79.876,50.249,120.282c-5.717,41.682,9.449,79.996,43.855,110.799c25.535,22.861,52.445,33.381,53.537,33.872
		c10.049,4.526,18.742,2.541,20.852,2.055c0,0,24.128,50.679,24.229,50.881c6.873,13.689,21.518,9.453,26.203,6.727
		c8.268-4.813,8.89-12.212,8.943-12.464c5.015-0.454,9.957-2.858,13.58-7.094c3.639-4.255,5.21-9.674,4.819-14.853
		c4.79-1.814,8.847-5.529,10.937-10.631c3.996-9.759-0.691-20.951-10.451-24.949c-0.267-0.109-54.74-15.41-54.74-15.41
		c0.452-13.545-10.065-25.879-20.314-37.894c-11.533-13.521-23.459-27.501-23.459-44.366c0-25.677,15.435-38.696,45.875-38.696
		c11.521,0,29.527,3.563,33.598,3.563c0.002,0,0.004,0,0.007,0c19.243-0.003,34.037-10.936,42.782-31.617
		c5.678-13.429,6.911-26.711,7.095-29.127C280.041,44.677,276.716,31.044,267.713,20.556z M94.948,52.977
		c-1.838,55.879,36.428,77.311,42.34,81.252c-4.427,15.311-4.039,23.143-4.037,23.352c-13.92,1.327-47.008,1.484-69.162-22.566
		C64.188,130.839,63.116,91.12,94.948,52.977z M187.293,253.47l54.069,15.17c1.903,0.96,2.781,3.245,1.961,5.25
		c-0.863,2.106-3.279,3.118-5.387,2.256c-3.834-1.568-8.213,0.266-9.783,4.099c-1.233,3.012-0.358,6.354,1.931,8.412
		c0.044,0.043,0.087,0.088,0.134,0.128c1.549,1.324,1.361,4.543-0.168,6.522c-2.881,3.729-6.031,1.191-6.057,1.17
		c-2.369-1.975-5.813-2.359-8.617-0.699c-3.565,2.108-4.746,6.708-2.637,10.273c0.561,0.948,0.719,2.06,0.445,3.127
		c-0.274,1.068-0.948,1.966-1.897,2.527c-0.948,0.561-2.06,0.719-3.128,0.445c-0.984-0.253-1.824-0.846-2.389-1.682l-24.018-50.504
		C184.282,257.658,186.104,255.275,187.293,253.47z M158.499,208.959c0.599,0.703,24.095,23.573,17.061,34.907
		c-0.054,0.086-0.058,0.111-0.101,0.203c-0.176,0.355-4.403,8.711-13.832,8.711c-2.602,0-18.625-0.467-42.848-21.164
		C138.942,228.525,151.692,217.201,158.499,208.959z M148.809,196.986c-5.439,7.46-20.266,22.988-47.804,20.063
		c-19.245-18.162-31.013-38.453-35.209-60.628c28.486,22.381,66.457,16.382,69.792,16.026
		C138.345,181.48,143.252,189.549,148.809,196.986z M145.114,121.403c-5.018-3.407-45.204-32.851-33.102-82.68
		c16.865-11.116,38.348-18.168,64.854-21.448c-23.969,40.585,1.123,81.301,4.134,86.817
		C165.376,106.164,153.242,112.087,145.114,121.403z M262.721,59.115c-0.03,0.225-3.315,47.702-35.006,47.707
		c-0.001,0-0.003,0-0.004,0c-2.959,0-6.152-0.383-9.482-1.137c-0.392-0.089-8.826-1.977-20.176-2.359
		c-2.871-4.27-8.266-13.34-11.625-25.482c-5.885-21.269-3.188-42.159,7.979-62.154c6.606-0.391,21.833-0.584,21.833-0.584
		c0.27,0,26.427,0.849,40.092,15.221C261.526,35.789,264.261,47.902,262.721,59.115z"/>
</g>
<g>
</g>
<g>
</g>
<g>
</g>
<g>
</g>
<g>
</g>
<g>
</g>
<g>
</g>
<g>
</g>
<g>
</g>
<g>
</g>
<g>
</g>
<g>
</g>
<g>
</g>
<g>
</g>
<g>
</g>
</svg>
