<svg height="511pt" viewBox="0 0 511.99923 511" width="511pt" xmlns="http://www.w3.org/2000/svg"><path d="m495.394531 6.34375c-54.96875-15.246094-117.570312-.164062-163.378906 39.363281-2.53125 2.1875-6.40625 7.40625-125.109375 109.996094l-9.527344-22.222656c-2.164062-5.058594-6.929687-8.523438-12.410156-9.023438-5.484375-.503906-10.796875 2.035157-13.851562 6.613281l-51.054688 76.582032c-22.417969 33.628906-50.699219 64.222656-78.050781 93.8125-3.460938 3.746094-6.925781 7.492187-10.382813 11.25-43.253906 47.015625-42.390625 120.738281 4.109375 166.597656 43.59375 42.996094 114.214844 43.496094 162.128907 5.199219 2.394531-1.238281 2.335937-1.398438 14.523437-12.664063 29.589844-27.347656 60.1875-55.632812 93.816406-78.050781l76.582031-51.058594c4.578126-3.050781 7.117188-8.367187 6.613282-13.847656s-3.96875-10.246094-9.023438-12.414063l-22.226562-9.523437c117.15625-135.546875 103.410156-117.203125 110.019531-125.136719 38.710937-44.878906 53.269531-108.761718 37.664063-165.027344-1.40625-5.074218-5.371094-9.035156-10.441407-10.445312zm-25.296875 115.542969-29.179687-29.179688 40.65625-40.644531c1.667969 23.53125-2.363281 47.738281-11.476563 69.824219zm-9.636718-91.128907-40.753907 40.738282-28.203125-28.203125c22.035156-9.640625 45.816406-14.011719 68.957032-12.535157zm-108.515626 37.367188c3.988282-3.421875 8.128907-6.609375 12.390626-9.585938l34.160156 34.164063-38.78125 38.773437-36.972656-36.976562c20.835937-18.449219 27.429687-24.660156 29.203124-26.375zm11.433594 186.984375-42.449218-42.449219 38.78125-38.773437 39.789062 39.789062c-9.707031 11.074219-21.609375 24.71875-36.121094 41.433594zm-63.65625-63.65625-40.972656-40.972656c16.527344-14.34375 30.171875-26.246094 41.433594-36.117188l38.320312 38.316407zm-63.695312-21.277344 42.484375 42.480469-36.925781 36.917969c-8.824219-35.585938-21.371094-62.589844-22.28125-64.945313 5.816406-5.023437 11.394531-9.847656 16.722656-14.453125zm-179.226563 287.78125c-34.703125-34.226562-36.0625-89.105469-3.097656-124.9375 3.4375-3.738281 6.886719-7.46875 10.335937-11.199219 28.140626-30.445312 57.242188-61.925781 80.980469-97.53125l35.699219-53.546874c16.144531 37.667968 27.757812 62.296874 35.863281 104.742187 7.117188 37.285156 8.273438 74.117187 4.042969 110.082031-3.222656 27.398438-16.21875 52.734375-36.59375 71.339844-36.730469 33.546875-93.804688 34.019531-127.230469 1.050781zm232.769531-89.117187c-14.175781 9.449218-27.6875 19.753906-40.746093 30.507812 3.953125-20.675781 6.210937-60.25 1.785156-99.515625 44.152344 10.101563 70.152344 24.394531 92.507813 33.308594zm-27.679687-97.160156 37.828125-37.8125 43.964844 43.964843c-4.605469 5.324219-9.421875 10.894531-14.457032 16.722657-3.484374-1.339844-29.449218-13.722657-67.335937-22.875zm157.464844-80.5625-38.433594-38.433594 38.78125-38.773438 35.546875 35.542969c-8.25 12.09375-7.5625 9.65625-35.894531 41.664063zm0 0"/></svg>