<svg height="512pt" viewBox="0 0 512.00015 512" width="512pt" xmlns="http://www.w3.org/2000/svg"><path d="m414.582031 85.066406c-17.066406 8.53125-30.507812 30.28125-37.003906 42.484375-10.191406 19.148438-16.273437 38.585938-16.273437 52 0 16.570313-14.238282 30.636719-31.398438 31.367188v-27.558594c0-17.863281-14.53125-32.394531-32.390625-32.394531-22.363281 0-30.164063 16.136718-35.863281 27.917968-11.8125 24.421876-26.851563 45.984376-46.261719 65.398438l-16.335937 16.332031-2.503907-5.007812c-12.292969-24.585938-10.886719-45.882813 4.425781-67.019531 15.261719-21.066407 39.328126-35.566407 57.597657-47.746094 37.003906-24.667969 47.230469-67.75 38.203125-97.554688-7.9375-26.222656-29.082032-42.152344-56.800782-42.972656-5.785156-1.042969-11.824218.761719-15.417968 1.835938-11.375 3.402343-29.359375 11.230468-53.449219 23.277343-99.597656 49.792969-129.957031 176.847657-70.207031 266.445313l10.886718 16.324218-33.054687 11.660157c-48.820313 16.339843-78.734375 62.492187-78.734375 113.390625 0 32.324218 18.570312 60.097656 48.46875 72.480468 30.183594 12.503907 63.003906 5.847657 85.738281-16.886718l27.882813-27.882813c23.003906 31.667969 60.003906 50.90625 99.917968 50.90625h22.914063c24.804687 0 44.984375-20.179687 44.984375-44.984375 0-24.808594-20.179688-44.988281-44.984375-44.988281-17.316406 0-27.449219-5.394531-38.550781-15.226563 2.589844-3.460937 43.425781-35.40625 52.070312-98.972656 26.164063 8.625 53.90625 9.636719 81.335938 2.820313 30.488281-7.574219 59.230468-24.199219 83.105468-48.078125 39.074219-39.074219 63.910157-98.945313 39.300782-148.167969-16.101563-32.199219-55.402344-45.296875-87.601563-29.199219zm-122.957031 187.449219c-4.648438-2.324219-10.171875-2.074219-14.589844.65625-4.417968 2.734375-7.109375 7.558594-7.109375 12.757813 0 19.492187-4.351562 38.679687-12.421875 56.03125l-27.824218-9.273438c-7.859376-2.621094-16.347657 1.625-18.96875 9.484375-2.617188 7.855469 1.628906 16.347656 9.484374 18.964844l21.113282 7.039062c-7.136719 8.957031-11.75 12.640625-26.972656 28.117188-5.859376 5.855469-5.859376 15.347656 0 21.207031 19.480468 19.480469 37.046874 34.382812 70.585937 34.382812 8.265625 0 14.996094 6.726563 14.996094 14.996094 0 8.269532-6.730469 14.996094-14.996094 14.996094h-22.914063c-35.648437 0-67.699218-19.808594-83.640624-51.695312-4.574219-9.148438-16.78125-11.132813-24.015626-3.894532l-41.351562 41.347656c-16.871094 16.871094-38.46875 16.425782-53.054688 10.386719-14.480468-6-29.953124-20.910156-29.953124-44.773437 0-4.933594.351562-9.769532 1.039062-14.476563 13.46875 11.890625 31.511719 18.117188 43.964844 18.117188 7.785156 0 14.363281-6.015625 14.9375-13.902344.605468-8.261719-5.601563-15.445313-13.863282-16.050781-22.511718-1.644532-32.300781-19.125-33.980468-20.625 3.9375-6.886719 8.757812-13.148438 14.359375-18.621094 11.636719 15.117188 29.210937 23.941406 48.308593 24.210938h.21875c8.179688 0 14.871094-6.574219 14.988282-14.785157.117187-8.28125-6.503906-15.085937-14.785156-15.203125-9.214844-.128906-17.742188-4.113281-23.726563-11 4.015625-1.738281.636719-.40625 58.496094-20.847656 9.210937-3.25 12.914062-14.324219 7.488281-22.460938l-21.585938-32.371093c-37.625-56.421875-31.960937-130.109375 6.289063-179.886719 5.507813 11.9375 16.210937 21.003906 28.953125 24.398438 8.003906 2.128906 16.21875-2.625 18.351562-10.632813 2.132813-8.003906-2.628906-16.21875-10.632812-18.347656-4.328125-1.152344-7.9375-4.3125-9.664062-8.445313l-4.398438-10.554687c9.011719-7.550781 18.972656-14.113281 29.769531-19.511719.878907-.441406 1.734375-.867188 2.585938-1.289062l2.78125 6.960937c5.359375 13.417969 15.441406 24.347656 28.386719 30.769531 7.417968 3.679688 16.414062.652344 20.097656-6.769531 3.679687-7.417969.648437-16.414063-6.769532-20.097656-6.320312-3.136719-11.246093-8.472657-13.863281-15.027344l-3.449219-8.636719c13.453126-5.878906 19.375-7.542968 21.546876-8.007812 4.140624.523437 25.164062-1.535156 32.234374 21.820312 5.679688 18.75-1.550781 47.523438-26.136718 63.910156-17.746094 11.828126-46.289063 28.933594-65.246094 55.105469-10.019531 13.828125-16 28.5-17.769531 43.601563-2.070313 17.636718 1.566406 35.949218 10.804687 54.425781l11.808594 23.617187c4.570312 9.144532 16.785156 11.132813 24.015625 3.898438l31.046875-31.046875c22.257812-22.257813 39.097656-46.738281 52.054688-73.542969 5.316406-10.984375 5.925781-10.984375 8.867187-10.984375 1.320313 0 2.398437 1.074219 2.398437 2.398438v42.589843c0 8.28125 6.714844 14.992188 14.996094 14.992188h13.589844c16.367188 0 31.957031-6.308594 43.890625-17.765625 12.191406-11.699219 18.902344-27.191406 18.902344-43.621094 0-6.714843 3.992187-21.441406 12.757812-37.910156 9.519531-17.878906 18.84375-27.199219 23.941407-29.75 17.414062-8.703125 38.660156-1.621094 47.363281 15.789063 4.433593 8.871093 6.257812 18.03125 6.539062 26.726562l-11.984375-2.996094c-8.023437-2.003906-16.175781 2.878906-18.183594 10.910156-2.011718 8.035157 2.875 16.179688 10.910157 18.1875l14.839843 3.710938c-3.449218 10.988281-8.839843 22.058594-15.820312 32.609375l-21.738281-5.433594c-8.023438-2.007812-16.175781 2.875-18.183594 10.910157-2.007813 8.035156 2.875 16.175781 10.910156 18.183593l7.800781 1.949219c-34.394531 33.667969-91.132812 58.921875-148.820312 30.078125zm0 0"/></svg>