<svg height="512pt" viewBox="0 0 511 512" width="512pt" xmlns="http://www.w3.org/2000/svg"><path d="m35.574219 291.847656 130.660156 14.414063c10.773437 13.363281 16.230469 30.371093 16.230469 50.679687v20.058594c0 35.863281 25.308594 65.910156 59 73.265625v46.734375c0 8.285156 6.714844 15 15 15s15-6.714844 15-15v-46.328125c34.6875-6.578125 60.992187-37.101563 60.992187-73.671875v-54.152344l14.066407-15.289062 132.757812-14.644532c18.632812-2.054687 33.183594-21.960937 33.183594-42.0625 0-15.109374-7.394532-28.515624-19.019532-36.746093 5.835938-20.496094.378907-42.960938-15.375-58.710938-15.699218-15.699219-38.886718-21.191406-59.683593-15.339843-16.1875-22.90625-49.003907-25.46875-68.59375-5.875-.027344.027343-.054688.054687-.082031.082031-5.773438 5.804687-9.449219 13.480469-10.351563 21.625l-14.554687 130.96875-14.421876 15.6875c-5.105468 5.550781-7.917968 12.761719-7.917968 20.304687v54.152344c0 19.925781-13.023438 36.859375-31 42.757812v-218.496093l83.222656-104.027344c4.964844-6.210937 6.777344-13.28125 6.777344-21.234375 0-11.953125-4.597656-23.347656-12.945313-32.078125-8.582031-8.976563-19.964843-13.921875-32.054687-13.921875-2.566406 0-5.113282.21875-7.613282.644531-10.367187-18.621093-30.113281-30.644531-52.386718-30.644531-22.273438 0-42.019532 12.023438-52.386719 30.644531-2.5-.425781-5.046875-.644531-7.613281-.644531-12.089844 0-23.472656 4.945312-32.054688 13.921875-14.1875 14.839844-17.992187 38.535156-4.972656 54.804687l82.027344 102.535157v217.789062c-16.933594-6.464843-29-22.871093-29-42.050781v-20.054688c0-28.335937-8.183594-52.269531-24.332032-71.285156l-14.773437-132.945312c-.875-7.890625-4.585937-14.179688-10.222656-19.8125-17.542969-17.546875-46.09375-17.546875-63.640625 0-1.824219 1.824218-3.480469 3.789062-4.953125 5.875-20.792969-5.851563-43.984375-.363282-59.683594 15.335937-15.753906 15.75-21.210937 38.214844-15.375 58.710938-2.070313 1.46875-4.027344 3.113281-5.839844 4.929687-26.164062 26.164063-10.371093 70.527344 21.929688 74.09375zm335.460937-136.484375c8.460938-8.410156 22.746094-3.957031 25.230469 7.410157 1.039063 4.757812 4.328125 8.71875 8.816406 10.613281 4.488281 1.898437 9.617188 1.496093 13.753907-1.074219 11.859374-7.371094 28.203124-5.523438 38.023437 4.292969 9.914063 9.917969 11.679687 25.140625 4.296875 37.023437-2.574219 4.136719-2.976562 9.269532-1.078125 13.757813 1.894531 4.488281 5.855469 7.773437 10.613281 8.8125 6.644532 1.453125 11.773438 7.386719 11.773438 14.652343 0 4.597657-1.890625 8.9375-6.476563 12.242188l-98.578125 10.878906 31.097656-33.820312c5.605469-6.097656 5.207032-15.585938-.890624-21.195313-6.097657-5.605469-15.585938-5.210937-21.195313.890625l-27.28125 29.667969c10.976563-94.167969 8.820313-90.933594 11.894531-94.152344zm-188.171875-75.375c-4.5-5.625 2.167969-19.988281 13.601563-19.988281 2.878906 0 5.675781.816406 8.078125 2.355469 4.101562 2.632812 9.226562 3.105469 13.738281 1.273437 4.515625-1.832031 7.859375-5.742187 8.96875-10.488281 3.179688-13.625 15.195312-23.140625 29.214844-23.140625 14.019531 0 26.035156 9.515625 29.214844 23.140625 1.109374 4.746094 4.453124 8.65625 8.96875 10.488281 4.515624 1.832032 9.640624 1.355469 13.738281-1.273437 2.402343-1.542969 5.195312-2.355469 8.078125-2.355469 7.988281 0 15 7.476562 15 16 0 .84375-.070313 1.691406-.207032 2.496094l-59.792968 74.742187v-47.238281c0-8.285156-6.714844-15-15-15s-15 6.714844-15 15v47.238281zm-140.628906 154.933594c4.761719-1.039063 8.722656-4.328125 10.617187-8.816406 1.898438-4.488281 1.496094-9.617188-1.074218-13.753907-7.386719-11.882812-5.621094-27.109374 4.292968-37.023437 9.820313-9.816406 26.164063-11.664063 38.019532-4.296875 4.140625 2.574219 9.269531 2.976562 13.757812 1.078125 4.488282-1.898437 7.777344-5.855469 8.816406-10.617187.609376-2.789063 2.007813-5.339844 4.042969-7.378907 6.578125-6.574219 17.507813-5.609375 22.835938 1.914063l10.570312 95.128906-33.40625-33.402344c-5.855469-5.859375-15.351562-5.859375-21.210937 0-5.859375 5.855469-5.859375 15.355469 0 21.210938l33.441406 33.441406c-98.179688-11.164062-94.65625-9.59375-97.324219-11.703125-9.183593-7.269531-5.574219-23.117187 6.621094-25.78125zm0 0"/></svg>