<?xml version="1.0" encoding="iso-8859-1"?>
<!-- Generator: Adobe Illustrator 19.0.0, SVG Export Plug-In . SVG Version: 6.00 Build 0)  -->
<svg version="1.1" id="Capa_1" xmlns="http://www.w3.org/2000/svg" xmlns:xlink="http://www.w3.org/1999/xlink" x="0px" y="0px"
	 viewBox="0 0 511.999 511.999" style="enable-background:new 0 0 511.999 511.999;" xml:space="preserve">
<g>
	<g>
		<path d="M481.288,123.937c-5.933-15.316-16.252-28.315-29.836-37.591c-13.558-9.257-29.41-14.15-45.838-14.15H390.07
			c-19.74,0-38.761,6.196-54.557,17.155c-13.743-10.832-31.02-17.155-49.201-17.155h-9.362v-8.545
			c0-18.358,14.934-33.291,33.291-33.291c8.383,0,15.18-6.797,15.18-15.18S318.625,0,310.241,0
			c-35.098,0-63.651,28.554-63.651,63.651v8.545h-9.363c-20.646,0-40.125,8.156-54.587,21.811
			c-16.879-13.842-38.333-21.811-60.712-21.811h-15.544c-16.428,0-32.279,4.893-45.838,14.15
			c-13.585,9.276-23.902,22.275-29.836,37.591C13.508,168.337,8.32,228.517,16.477,289.043
			c10.081,74.812,37.59,147.602,71.79,189.964c16.927,20.968,42.318,32.992,69.678,32.992c17.635,0,34.134-7.612,45.267-20.888
			c0.736-0.876,1.46-1.781,2.182-2.698c14.723,14.932,35.072,23.585,56.378,23.585c18.336,0,35.961-6.414,49.904-17.72
			c10.999,11.302,26.206,17.72,42.379,17.72c27.617,0,53.324-12.414,70.532-34.058c33.781-42.486,60.961-114.867,70.936-188.897
			C503.678,228.517,498.49,168.337,481.288,123.937z M179.949,471.602c-5.35,6.379-13.371,10.037-22.018,10.037
			c-18.126,0-34.908-7.91-46.043-21.702c-30.444-37.709-56.085-106.38-65.326-174.947c-7.493-55.609-2.953-110.312,12.457-150.085
			c7.496-19.348,26.53-32.349,47.364-32.349h15.544c16.001,0,31.303,5.961,43.043,16.242c-0.577,1.283-1.131,2.58-1.64,3.902
			c-15.316,39.836-23.412,87.446-23.412,137.682c0,41.015,5.429,83.372,15.703,122.488c8.07,30.731,18.707,57.754,31.147,79.42
			C184.571,465.691,182.295,468.805,179.949,471.602z M301.147,461.655c-9.097,12.513-23.816,19.984-39.376,19.984
			c-15.56,0-30.282-7.471-39.379-19.984c-31.172-42.879-52.114-123.765-52.114-201.273c0-46.549,7.397-90.39,21.39-126.787
			c7.138-18.565,25.447-31.039,45.559-31.039h49.085c20.112,0,38.422,12.474,45.559,31.039
			c13.993,36.397,21.39,80.238,21.39,126.787C353.261,337.89,332.319,418.776,301.147,461.655z M465.434,284.989
			c-9.145,67.871-34.508,136.192-64.613,174.057c-11.414,14.358-28.461,22.592-46.769,22.592c-8.635,0-16.656-3.658-22.005-10.037
			c-0.176-0.211-0.35-0.431-0.525-0.645c14.711-22.928,27.211-53.115,36.396-88.087c10.273-39.116,15.703-81.472,15.703-122.488
			c0-50.236-8.096-97.845-23.412-137.682c-1.355-3.523-2.964-6.905-4.787-10.142c10.238-6.41,22.233-10.002,34.648-10.002h15.544
			c20.834,0,39.868,13,47.364,32.349C468.387,174.677,472.927,229.38,465.434,284.989z"/>
	</g>
</g>
<g>
</g>
<g>
</g>
<g>
</g>
<g>
</g>
<g>
</g>
<g>
</g>
<g>
</g>
<g>
</g>
<g>
</g>
<g>
</g>
<g>
</g>
<g>
</g>
<g>
</g>
<g>
</g>
<g>
</g>
</svg>
