<svg height="512pt" viewBox="-139 0 512 512" width="512pt" xmlns="http://www.w3.org/2000/svg"><path d="m233.859375 301.003906c-31.902344-96.90625-47.046875-173.460937-52.664063-205.996094h21.570313v-95.007812h-170.921875v95.007812h21.574219c-5.621094 32.539063-20.765625 109.09375-52.664063 205.996094l-.753906 2.285156v208.710938h234.609375v-208.710938zm-166.671875-124.347656c6.101562-3.570312 19.972656-8.511719 39.09375 3.816406 12.90625 8.316406 25.566406 11.4375 37.113281 11.4375 9.769531 0 18.742188-2.234375 26.390625-5.445312 8.058594 32.972656 18.875 72.449218 33.164063 116.535156h-171.289063c15.734375-48.542969 27.257813-91.503906 35.527344-126.34375zm-5.34375-146.65625h110.921875v35.007812h-110.921875zm88.890625 65.007812c2.058594 12.535157 5.859375 33.644532 12.0625 61.535157-8.160156 4.773437-23.019531 9.828125-40.261719-1.289063-17.691406-11.402344-34.207031-13.820312-47.820312-12.066406 4.519531-21.324219 7.445312-37.730469 9.164062-48.179688zm-120.734375 386.992188v-149h174.609375v149zm0 0"/><path d="m132.558594 371.261719c1.21875-4.433594 2.886718-8.671875 4.195312-11.339844l-13.449218-6.644531-13.433594-6.675782c-.742188 1.496094-5.671875 11.71875-7.882813 23.847657-20.179687 5.753906-34.933593 23.617187-34.933593 44.710937 0 25.734375 21.945312 46.667969 48.917968 46.667969s48.917969-20.933594 48.917969-46.667969c-.003906-20.175781-13.5-37.402344-32.332031-43.898437zm-16.585938 60.566406c-10.433594 0-18.917968-7.476563-18.917968-16.667969 0-9.1875 8.484374-16.664062 18.917968-16.664062 10.429688 0 18.917969 7.476562 18.917969 16.664062-.003906 9.191406-8.488281 16.667969-18.917969 16.667969zm0 0"/></svg>