<svg height="512pt" viewBox="-111 0 512 512" width="512pt" xmlns="http://www.w3.org/2000/svg"><path d="m278.316406 366.65625.003906-.003906c15.5625-24.71875 15.636719-59.316406.179688-84.132813l-.71875-1.152343c-9.460938-15.1875-9.414062-37.179688.101562-52.292969l.261719-.414063c15.6875-24.90625 15.660157-59.675781-.066406-84.546875-9.609375-15.203125-9.628906-37.289062-.042969-52.519531l.457032-.726562c15.4375-24.53125 15.613281-58.953126.429687-83.710938l-4.390625-7.15625h-273.472656l14.011718 22.84375c9.300782 15.15625 9.195313 37.046875-.246093 52.046875l-.457031.726563c-15.671876 24.902343-15.640626 59.664062.082031 84.527343 9.613281 15.207031 9.628906 37.296875.039062 52.523438l-.261719.414062c-15.570312 24.722657-15.648437 59.324219-.1875 84.144531l.722657 1.15625c9.453125 15.179688 9.410156 37.171876-.101563 52.285157l-.421875.664062c-15.578125 24.75-15.636719 59.371094-.132812 84.203125l.558593.898438c9.503907 15.21875 9.449219 37.253906-.121093 52.394531l-14.542969 23 273.65625.171875 4.519531-7.140625c15.65625-24.761719 15.746094-59.433594.210938-84.316406l-.5625-.902344c-9.484375-15.1875-9.449219-37.191406.074219-52.320313zm-104.640625-291.765625-.457031.726563c-15.675781 24.902343-15.640625 59.664062.078125 84.527343 9.617187 15.207031 9.632813 37.296875.042969 52.523438l-.261719.414062c-15.570313 24.722657-15.648437 59.324219-.1875 84.144531l.71875 1.15625c9.457031 15.179688 9.414063 37.171876-.101563 52.285157l-.417968.664062c-15.582032 24.75-15.636719 59.371094-.140625 84.199219l.566406.90625c8.144531 13.042969 9.246094 31.082031 3.378906 45.5l-48.023437-.027344c4.90625-20.648437 1.804687-43.523437-9.332032-61.359375l-.566406-.910156c-9.480468-15.1875-9.449218-37.191406.078125-52.320313l.417969-.667968c15.5625-24.71875 15.636719-59.316406.179688-84.132813l-.71875-1.152343c-9.460938-15.1875-9.414063-37.179688.101562-52.292969l.261719-.414063c15.6875-24.90625 15.660156-59.675781-.066407-84.546875-9.609374-15.203125-9.628906-37.289062-.042968-52.519531l.457031-.726562c11.078125-17.605469 14.296875-40.300782 9.617187-60.867188h48.15625c5.542969 14.355469 4.300782 32.113281-3.738281 44.890625zm-133.566406 345.648437-.5625-.898437c-9.480469-15.1875-9.445313-37.191406.078125-52.320313l.417969-.664062c15.5625-24.722656 15.636719-59.320312.179687-84.132812l-.71875-1.15625c-9.460937-15.1875-9.414062-37.179688.105469-52.292969l.257813-.410157c15.6875-24.910156 15.660156-59.675781-.066407-84.550781-9.609375-15.203125-9.628906-37.289062-.042969-52.519531l.453126-.722656c11.082031-17.605469 14.300781-40.304688 9.625-60.871094h48.152343c5.542969 14.355469 4.300781 32.113281-3.738281 44.890625l-.457031.726563c-15.675781 24.90625-15.644531 59.664062.078125 84.527343 9.613281 15.207031 9.632812 37.296875.039062 52.523438l-.257812.414062c-15.570313 24.722657-15.648438 59.324219-.1875 84.148438l.71875 1.152343c9.457031 15.179688 9.414062 37.171876-.101563 52.285157l-.417969.664062c-15.582031 24.75-15.640624 59.371094-.144531 84.191407l.570313.914062c8.132812 13.027344 9.242187 31.039062 3.394531 45.449219l-48.027344-.03125c4.894531-20.632813 1.78125-43.484375-9.347656-61.316407zm212.613281-260.394531c9.617188 15.207031 9.632813 37.296875.042969 52.523438l-.261719.414062c-15.570312 24.71875-15.648437 59.324219-.1875 84.144531l.71875 1.152344c9.457032 15.179688 9.414063 37.167969-.101562 52.285156l-.417969.667969c-15.582031 24.746094-15.640625 59.367188-.140625 84.195313l.566406.90625c8.152344 13.054687 9.269532 31.125 3.382813 45.554687l-48.039063-.03125c4.925782-20.660156 1.824219-43.558593-9.324218-61.414062l-.566407-.902344c-9.476562-15.1875-9.445312-37.195313.082031-52.324219l.417969-.664062c15.5625-24.71875 15.636719-59.316406.179688-84.132813l-.71875-1.152343c-9.457031-15.1875-9.414063-37.179688.105469-52.292969l.257812-.414063c15.6875-24.90625 15.664062-59.675781-.066406-84.550781-9.609375-15.199219-9.628906-37.285156-.042969-52.515625l.457031-.726562c11.078125-17.605469 14.296875-40.304688 9.617188-60.871094h48.1875c5.539062 14.355468 4.269531 32.121094-3.769532 44.890625l-.457031.726562c-15.675781 24.90625-15.640625 59.667969.078125 84.53125zm0 0"/></svg>