<svg height="512pt" viewBox="0 0 512 512" width="512pt" xmlns="http://www.w3.org/2000/svg"><path d="m256 0c-142.039062 0-256 115.285156-256 255 0 140.796875 114.964844 257 256 257 140.882812 0 256-115.957031 256-257 0-141.203125-115.46875-255-256-255zm15 90.679688c84.53125 7.5625 151 78.367187 151 164.320312 0 86.476562-66.46875 157.707031-151 165.316406zm-30 390.808593c-15.480469-1.023437-30.535156-3.617187-45.019531-7.628906-.019531-9.703125-.117188-42.476563.015625-48.527344.386718-17.453125 1.699218-20.007812 11.929687-39.894531 2.148438-4.179688 4.589844-8.921875 7.433594-14.613281 8.3125-16.621094 5.066406-36.613281-8.074219-49.75l-18.113281-18.113281c-3.058594-3.058594-4.386719-7.429688-3.644531-11.996094.726562-4.464844 3.292968-8.105469 7.050781-9.980469 21.257813-10.632813 29.902344-36.570313 19.273437-57.824219-1.453124-2.902344-2.929687-5.65625-4.355468-8.320312-7.375-13.769532-9.871094-19.550782-6.796875-25.695313 3.664062-7.324219 6.71875-13.285156 9.414062-18.542969 15.789063-30.796874 16.253907-33.273437 15.886719-66.195312-.0625-5.554688-.132812-11.847656-.132812-19.550781 0-2.960938 1.152343-5.867188 3.003906-8.179688l12.128906-15.164062zm-124.714844-160.414062c-30.988281-30.988281-35.640625-57.457031-29.660156-71.894531 2.273438-5.492188 6.296875-9.179688 10.007812-9.179688 27.921876 0 40.429688-13.488281 45.398438-21.53125 7.433594-12.027344 7.828125-27.292969 1.050781-40.847656-.019531-.105469-5.539062-8.949219 1.84375-16.335938 7.023438-7.019531 10.265625-17.066406 8.675781-26.871094-2.953124-18.171874-18.707031-23.511718-19.429687-24.09375-17.128906-8.492187-18.257813-10.363281-17.511719-18.152343.480469-5.015625.894532-10.09375 1.273438-15.171875 30.789062-23.722656 67.871094-39.722656 108.292968-45.042969l-20.78125 25.980469c-6.089843 7.613281-9.445312 17.175781-9.445312 26.921875 0 7.867187.070312 14.25.132812 19.882812.300782 26.785157.300782 26.785157-12.71875 52.175781-2.726562 5.320313-5.820312 11.351563-9.550781 18.8125-10.304687 20.617188-.605469 38.726563 7.1875 53.277344 1.328125 2.480469 2.703125 5.046875 3.96875 7.574219 3.226563 6.457031.601563 14.339844-5.859375 17.570313-12.300781 6.152343-20.992187 18.117187-23.246094 32.007812-2.269531 13.992188 2.234376 28.203125 12.046876 38.015625l18.113281 18.113281c3.992187 3.992188 4.980469 10.070313 2.453125 15.121094-2.769532 5.539062-5.164063 10.199219-7.28125 14.3125-11 21.382812-14.601563 28.585938-15.140625 52.949219-.109375 4.882812-.082031 22.382812-.046875 38.515625-24.484375-10.726563-46.835938-25.671875-65.910156-43.941406l24.214843-48.417969c8.304688-16.621094 5.0625-36.613281-8.078125-49.75zm-28.5-216.164063c4.324219 17.449219 18.042969 24.84375 33.058594 32.289063 2.847656 1.417969 3.035156 1.359375 3.144531 2.023437.082031.496094-.160156.734375-.273437.851563-13.140625 13.136719-16.382813 33.128906-8.070313 49.753906l.609375 1.21875c2.117188 4.238281 2.214844 8.484375.257813 11.652344-2.871094 4.640625-10.113281 7.300781-19.878907 7.300781-16.191406 0-30.648437 10.613281-37.722656 27.699219-4.046875 9.769531-7.441406 26.011719-.648437 47.917969 5.925781 19.105468 18.3125 38.167968 36.8125 56.667968 3.992187 3.992188 4.976562 10.070313 2.453125 15.121094l-18.996094 37.988281c-30.378906-38.660156-48.53125-87.4375-48.53125-140.394531 0-57.621094 21.878906-110.242188 57.785156-150.089844zm183.214844 376.578125v-31.0625c100.425781-7.679687 181-92.597656 181-195.425781 0-103.375-81.160156-186.878906-181-194.429688v-30.0625c117.648438 7.714844 211 105.445313 211 224.492188 0 120.105469-93.351562 218.703125-211 226.488281zm0 0"/><path d="m391 255c0 8.285156-6.714844 15-15 15s-15-6.714844-15-15 6.714844-15 15-15 15 6.714844 15 15zm0 0"/><path d="m331 135c0 8.285156-6.714844 15-15 15s-15-6.714844-15-15 6.714844-15 15-15 15 6.714844 15 15zm0 0"/><path d="m331 255c0 8.285156-6.714844 15-15 15s-15-6.714844-15-15 6.714844-15 15-15 15 6.714844 15 15zm0 0"/><path d="m361 316c0 8.285156-6.714844 15-15 15s-15-6.714844-15-15 6.714844-15 15-15 15 6.714844 15 15zm0 0"/><path d="m361 195c0 8.285156-6.714844 15-15 15s-15-6.714844-15-15 6.714844-15 15-15 15 6.714844 15 15zm0 0"/><path d="m331 376c0 8.285156-6.714844 15-15 15s-15-6.714844-15-15 6.714844-15 15-15 15 6.714844 15 15zm0 0"/></svg>